<svg id="Capa_1" enable-background="new 0 0 512 512" height="512" viewBox="0 0 512 512" width="512" xmlns="http://www.w3.org/2000/svg"><g id="XMLID_1313_"><path id="XMLID_1319_" d="m243.626 0h30v69.936h-30z"/><path id="XMLID_1321_" d="m243.626 110.516h30v69.936h-30z"/><path id="XMLID_1322_" d="m243.626 221.032h30v69.937h-30z"/><path id="XMLID_1323_" d="m243.626 331.548h30v69.936h-30z"/><path id="XMLID_1324_" d="m243.626 442.064h30v69.936h-30z"/><path id="XMLID_1325_" d="m2.511 4.436h69.498v150.417h-69.498z"/><path id="XMLID_1326_" d="m439.99 312.904h69.499v150.417h-69.499z"/><path id="XMLID_1327_" d="m362.995 345.099c-7.846 0-15.363 6.899-15 15 .364 8.127 6.591 15 15 15 7.846 0 15.363-6.899 15-15-.364-8.128-6.591-15-15-15z"/></g></svg>